<svg version="1.1" id="Layer_1" xmlns="http://www.w3.org/2000/svg" xmlns:xlink="http://www.w3.org/1999/xlink" x="0px" y="0px"
	 width="100%" viewBox="0 0 1080 1080" enable-background="new 0 0 1080 1080" xml:space="preserve">
<path fill="#FFFFFF" opacity="1.000000" stroke="none" 
	d="
M748.000000,1081.000000 
	C498.695374,1081.000000 249.890762,1081.000000 1.043071,1081.000000 
	C1.043071,721.070251 1.043071,361.140503 1.043071,1.105384 
	C360.888153,1.105384 720.776367,1.105384 1080.832275,1.105384 
	C1080.832275,360.999939 1080.832275,720.999939 1080.832275,1081.000000 
	C970.140076,1081.000000 859.320007,1081.000000 748.000000,1081.000000 
M283.435181,211.987839 
	C268.046417,207.644470 252.383575,206.993469 236.477936,207.732483 
	C204.216827,209.231400 174.774506,218.666107 148.326416,237.345703 
	C126.010689,253.106766 109.261131,272.720551 105.720955,300.827209 
	C104.639053,309.416840 105.088676,318.391724 106.216881,327.009491 
	C107.206642,334.569794 111.740990,337.296631 119.279030,337.031616 
	C127.633461,336.737915 135.341782,334.250610 142.127380,329.368652 
	C154.561356,320.422974 166.693527,311.045959 179.305008,302.362183 
	C190.815445,294.436523 203.445419,291.372894 216.371323,298.728943 
	C226.317368,304.389191 230.405457,314.493805 232.931244,325.050903 
	C239.042297,350.593567 238.208893,376.395874 233.296814,401.860046 
	C227.382111,432.521729 220.505142,463.021179 213.177994,493.381714 
	C200.933807,544.116272 188.205856,594.736938 175.284424,645.304016 
	C167.317047,676.483887 166.124985,707.605408 173.004120,739.123474 
	C183.189011,785.787415 211.035095,816.906128 255.332581,833.730042 
	C281.843567,843.798706 309.414124,846.723450 337.628326,846.354004 
	C364.150818,846.006836 389.496582,840.702637 413.863861,830.605713 
	C456.908447,812.769531 491.009796,783.201111 520.893616,748.213135 
	C523.830505,744.774658 526.684814,741.265625 529.911255,737.388245 
	C533.665955,744.650635 536.782959,751.084412 540.253723,757.321350 
	C553.636597,781.370056 569.469604,803.516052 591.309814,820.718689 
	C611.480469,836.606201 634.103027,845.984070 660.195435,846.285950 
	C677.722473,846.488708 695.062561,845.271851 712.294861,842.051758 
	C758.690918,833.382141 798.552368,812.099548 831.984070,779.075806 
	C852.602783,758.708679 869.024536,734.990234 882.824158,709.542053 
	C916.703674,647.064209 936.134216,579.975403 945.965942,509.881592 
	C948.182495,494.079132 950.163452,478.242523 952.113037,462.404419 
	C952.603821,458.417786 954.253723,456.410950 958.184265,454.576630 
	C967.638428,450.164490 977.187683,445.483246 985.590393,439.383789 
	C1006.787903,423.996765 1019.312561,403.365753 1019.904663,376.523987 
	C1020.125732,366.501404 1015.152832,361.446136 1005.195801,360.930969 
	C997.399292,360.527557 990.516602,362.900696 983.992432,367.016174 
	C975.738586,372.222748 967.311096,377.154053 957.843018,382.878540 
	C958.266479,377.745880 958.889160,374.161438 958.801758,370.594421 
	C958.341431,351.799438 958.407593,332.954041 956.953125,314.230042 
	C954.955200,288.509094 947.584351,264.272247 933.183167,242.520554 
	C920.939697,224.027893 904.418518,211.505051 882.806519,205.677902 
	C864.800842,200.823074 846.620422,200.539093 828.402954,203.181702 
	C807.267700,206.247604 787.600830,213.527100 771.653564,228.169006 
	C736.772339,260.195160 727.556091,300.382446 735.866455,345.644501 
	C739.626892,366.125336 748.739624,384.374725 760.517639,401.384674 
	C778.595581,427.493073 802.078735,446.721252 832.374634,456.857422 
	C843.505127,460.581421 855.046326,463.077515 866.703552,466.215363 
	C866.677856,466.419617 866.653870,467.225281 866.469177,467.992249 
	C861.332336,489.320465 856.610291,510.760193 850.937622,531.945312 
	C839.625793,574.190369 824.719910,615.099792 802.882385,653.177429 
	C788.195862,678.786255 770.858032,702.282532 746.562561,719.809509 
	C729.065002,732.432373 709.473145,739.415405 687.917297,739.727417 
	C667.812317,740.018494 650.602539,732.165894 636.158569,718.397339 
	C616.171875,699.345093 604.192993,675.295654 593.665955,650.255127 
	C590.953674,643.803345 591.361694,638.651062 594.210266,632.452942 
	C633.623108,546.694092 663.717529,458.277374 670.339600,363.216980 
	C671.575012,345.482544 671.434387,327.887604 665.876953,310.849609 
	C656.363708,281.683624 637.097717,262.670166 606.714722,255.932709 
	C589.290222,252.068802 571.771790,252.416763 554.123230,254.866760 
	C518.968628,259.747009 493.759521,277.740631 479.087280,310.238647 
	C467.877197,335.068298 465.256256,361.235504 465.628937,388.166901 
	C466.122253,423.813568 467.211182,459.405914 471.038361,494.855377 
	C473.214630,515.012939 475.104736,535.279663 478.855896,555.170654 
	C484.580139,585.524658 491.846161,615.586853 498.295471,645.807556 
	C498.719025,647.792358 498.487274,650.610413 497.347046,652.131226 
	C481.185883,673.686340 463.013977,693.342529 441.071777,709.169800 
	C412.381134,729.864929 380.989166,741.834351 344.885437,737.975342 
	C320.990875,735.421387 303.500549,719.522461 298.824219,696.109558 
	C296.175140,682.846375 297.179321,669.537048 298.931091,656.376160 
	C303.447083,622.447693 307.098846,588.316956 313.655396,554.767212 
	C324.267395,500.465454 336.735107,446.521027 348.790863,392.508636 
	C356.960663,355.906372 359.037720,319.349915 348.846863,282.898163 
	C339.261658,248.612732 319.686340,223.014847 283.435181,211.987839 
z"/>
<path fill="#5BD6CB" opacity="1.000000" stroke="none" 
	d="
M283.826660,212.075043 
	C319.686340,223.014847 339.261658,248.612732 348.846863,282.898163 
	C359.037720,319.349915 356.960663,355.906372 348.790863,392.508636 
	C336.735107,446.521027 324.267395,500.465454 313.655396,554.767212 
	C307.098846,588.316956 303.447083,622.447693 298.931091,656.376160 
	C297.179321,669.537048 296.175140,682.846375 298.824219,696.109558 
	C303.500549,719.522461 320.990875,735.421387 344.885437,737.975342 
	C380.989166,741.834351 412.381134,729.864929 441.071777,709.169800 
	C463.013977,693.342529 481.185883,673.686340 497.347046,652.131226 
	C498.487274,650.610413 498.719025,647.792358 498.295471,645.807556 
	C491.846161,615.586853 484.580139,585.524658 478.855896,555.170654 
	C475.104736,535.279663 473.214630,515.012939 471.038361,494.855377 
	C467.211182,459.405914 466.122253,423.813568 465.628937,388.166901 
	C465.256256,361.235504 467.877197,335.068298 479.087280,310.238647 
	C493.759521,277.740631 518.968628,259.747009 554.123230,254.866760 
	C571.771790,252.416763 589.290222,252.068802 606.714722,255.932709 
	C637.097717,262.670166 656.363708,281.683624 665.876953,310.849609 
	C671.434387,327.887604 671.575012,345.482544 670.339600,363.216980 
	C663.717529,458.277374 633.623108,546.694092 594.210266,632.452942 
	C591.361694,638.651062 590.953674,643.803345 593.665955,650.255127 
	C604.192993,675.295654 616.171875,699.345093 636.158569,718.397339 
	C650.602539,732.165894 667.812317,740.018494 687.917297,739.727417 
	C709.473145,739.415405 729.065002,732.432373 746.562561,719.809509 
	C770.858032,702.282532 788.195862,678.786255 802.882385,653.177429 
	C824.719910,615.099792 839.625793,574.190369 850.937622,531.945312 
	C856.610291,510.760193 861.332336,489.320465 866.469177,467.992249 
	C866.653870,467.225281 866.677856,466.419617 866.703552,466.215363 
	C855.046326,463.077515 843.505127,460.581421 832.374634,456.857422 
	C802.078735,446.721252 778.595581,427.493073 760.517639,401.384674 
	C748.739624,384.374725 739.626892,366.125336 735.866455,345.644501 
	C727.556091,300.382446 736.772339,260.195160 771.653564,228.169006 
	C787.600830,213.527100 807.267700,206.247604 828.402954,203.181702 
	C846.620422,200.539093 864.800842,200.823074 882.806519,205.677902 
	C904.418518,211.505051 920.939697,224.027893 933.183167,242.520554 
	C947.584351,264.272247 954.955200,288.509094 956.953125,314.230042 
	C958.407593,332.954041 958.341431,351.799438 958.801758,370.594421 
	C958.889160,374.161438 958.266479,377.745880 957.843018,382.878540 
	C967.311096,377.154053 975.738586,372.222748 983.992432,367.016174 
	C990.516602,362.900696 997.399292,360.527557 1005.195801,360.930969 
	C1015.152832,361.446136 1020.125732,366.501404 1019.904663,376.523987 
	C1019.312561,403.365753 1006.787903,423.996765 985.590393,439.383789 
	C977.187683,445.483246 967.638428,450.164490 958.184265,454.576630 
	C954.253723,456.410950 952.603821,458.417786 952.113037,462.404419 
	C950.163452,478.242523 948.182495,494.079132 945.965942,509.881592 
	C936.134216,579.975403 916.703674,647.064209 882.824158,709.542053 
	C869.024536,734.990234 852.602783,758.708679 831.984070,779.075806 
	C798.552368,812.099548 758.690918,833.382141 712.294861,842.051758 
	C695.062561,845.271851 677.722473,846.488708 660.195435,846.285950 
	C634.103027,845.984070 611.480469,836.606201 591.309814,820.718689 
	C569.469604,803.516052 553.636597,781.370056 540.253723,757.321350 
	C536.782959,751.084412 533.665955,744.650635 529.911255,737.388245 
	C526.684814,741.265625 523.830505,744.774658 520.893616,748.213135 
	C491.009796,783.201111 456.908447,812.769531 413.863861,830.605713 
	C389.496582,840.702637 364.150818,846.006836 337.628326,846.354004 
	C309.414124,846.723450 281.843567,843.798706 255.332581,833.730042 
	C211.035095,816.906128 183.189011,785.787415 173.004120,739.123474 
	C166.124985,707.605408 167.317047,676.483887 175.284424,645.304016 
	C188.205856,594.736938 200.933807,544.116272 213.177994,493.381714 
	C220.505142,463.021179 227.382111,432.521729 233.296814,401.860046 
	C238.208893,376.395874 239.042297,350.593567 232.931244,325.050903 
	C230.405457,314.493805 226.317368,304.389191 216.371323,298.728943 
	C203.445419,291.372894 190.815445,294.436523 179.305008,302.362183 
	C166.693527,311.045959 154.561356,320.422974 142.127380,329.368652 
	C135.341782,334.250610 127.633461,336.737915 119.279030,337.031616 
	C111.740990,337.296631 107.206642,334.569794 106.216881,327.009491 
	C105.088676,318.391724 104.639053,309.416840 105.720955,300.827209 
	C109.261131,272.720551 126.010689,253.106766 148.326416,237.345703 
	C174.774506,218.666107 204.216827,209.231400 236.477936,207.732483 
	C252.383575,206.993469 268.046417,207.644470 283.826660,212.075043 
M553.025208,459.431824 
	C555.817200,482.986023 558.609192,506.540192 561.401184,530.094360 
	C561.978394,530.084473 562.555664,530.074585 563.132874,530.064758 
	C566.597046,519.674927 570.229431,509.337677 573.496033,498.886139 
	C587.436035,454.284210 595.338440,408.748627 594.003723,361.867676 
	C593.706787,351.437714 591.264099,341.363220 585.939514,332.311951 
	C579.549744,321.450073 566.465759,321.433502 560.054626,332.239166 
	C557.877319,335.908875 556.210632,340.030975 555.101868,344.158936 
	C550.616028,360.859039 549.779968,378.006744 550.234070,395.156464 
	C550.793396,416.279236 552.046692,437.383667 553.025208,459.431824 
M844.304932,329.014435 
	C850.035156,350.079956 861.629395,366.548523 881.675720,377.512787 
	C883.524780,356.501160 886.549133,336.536560 883.909668,316.355164 
	C882.496765,305.551361 879.856750,295.086670 874.185608,285.663757 
	C870.460938,279.474915 865.373169,275.204865 857.478027,276.116638 
	C850.141418,276.963928 845.740723,281.284973 843.833679,288.172729 
	C842.910461,291.507050 841.910645,295.020569 842.044678,298.409454 
	C842.437988,308.352295 843.382263,318.273315 844.304932,329.014435 
z"/>
<path fill="#FEFFFF" opacity="1.000000" stroke="none" 
	d="
M553.012634,458.963928 
	C552.046692,437.383667 550.793396,416.279236 550.234070,395.156464 
	C549.779968,378.006744 550.616028,360.859039 555.101868,344.158936 
	C556.210632,340.030975 557.877319,335.908875 560.054626,332.239166 
	C566.465759,321.433502 579.549744,321.450073 585.939514,332.311951 
	C591.264099,341.363220 593.706787,351.437714 594.003723,361.867676 
	C595.338440,408.748627 587.436035,454.284210 573.496033,498.886139 
	C570.229431,509.337677 566.597046,519.674927 563.132874,530.064758 
	C562.555664,530.074585 561.978394,530.084473 561.401184,530.094360 
	C558.609192,506.540192 555.817200,482.986023 553.012634,458.963928 
z"/>
<path fill="#FDFFFF" opacity="1.000000" stroke="none" 
	d="
M844.207825,328.608643 
	C843.382263,318.273315 842.437988,308.352295 842.044678,298.409454 
	C841.910645,295.020569 842.910461,291.507050 843.833679,288.172729 
	C845.740723,281.284973 850.141418,276.963928 857.478027,276.116638 
	C865.373169,275.204865 870.460938,279.474915 874.185608,285.663757 
	C879.856750,295.086670 882.496765,305.551361 883.909668,316.355164 
	C886.549133,336.536560 883.524780,356.501160 881.675720,377.512787 
	C861.629395,366.548523 850.035156,350.079956 844.207825,328.608643 
z"/>
</svg>